<?xml version="1.0" encoding="utf-8"?>
<!-- Svg Vector Icons : http://www.onlinewebfonts.com/icon -->
<!DOCTYPE svg PUBLIC "-//W3C//DTD SVG 1.1//EN" "http://www.w3.org/Graphics/SVG/1.1/DTD/svg11.dtd">
<svg version="1.1" xmlns="http://www.w3.org/2000/svg" xmlns:xlink="http://www.w3.org/1999/xlink" x="0px" y="0px" viewBox="0 0 1000 1000" enable-background="new 0 0 1000 1000" xml:space="preserve">
<metadata> Svg Vector Icons : http://www.onlinewebfonts.com/icon </metadata>
<g><path d="M500,10c28.5,0,51.6,23.1,51.6,51.6c0,21.2-19.2,39.4-37.5,47.3l13.8,133.2c98.7,1.2,178.4,81.5,178.4,180.5l0,77.4h-25.8c57,0,103.2,46.2,103.2,103.2v51.6c0,57-46.2,103.2-103.1,103.2h25.8v196C659.3,975.8,584.4,990,500,990s-159.3-14.2-206.3-36.1v-196h25.8c-57,0-103.1-46.2-103.1-103.2v-51.6c0-57,46.2-103.2,103.2-103.2h-25.8v-77.4c0-99,79.7-179.4,178.4-180.5l13.8-133.2c-18.3-7.9-37.5-26.1-37.5-47.3C448.4,33.1,471.5,10,500,10z M680.5,525.8H319.5c-42.7,0-77.4,34.6-77.4,77.4v51.6c0,42.7,34.6,77.4,77.4,77.4h361.1c42.7,0,77.4-34.6,77.4-77.4v-51.6C757.9,560.4,723.3,525.8,680.5,525.8z M500,790.1l-25.8-6.1v51.2h51.6v-51.2L500,790.1z M680.5,835.3c0-51.6-19.7-43.3-51.6-51.7v51.7H680.5z M551.6,785.3v50h51.6v-50.7L551.6,785.3z M396.8,784.5v50.7h51.6v-50L396.8,784.5z M319.5,835.3h51.6v-51.7C339.1,792,319.5,783.7,319.5,835.3z M500,912.6l25.8-0.6v-51h-51.6v51L500,912.6z M671.4,861.1h-42.5v30.8C649.4,883.1,663.3,872.3,671.4,861.1z M551.6,861.1v49.1c19.6-2,36.8-5.3,51.6-9.4v-39.7H551.6z M396.8,861.1v38.7h-3.6c15.6,4.6,33.9,8.2,55.1,10.4v-49.1H396.8z M328.6,861.1c8.2,11.3,22.1,22,42.5,30.8v-30.8H328.6z M371.1,603.2h51.6v51.6h-51.6V603.2z M577.4,603.2h51.6v51.6h-51.6V603.2z M319.5,551.6h30.8c-26.2,15.8-43.7,44.5-43.7,77.4c0,32.8,17.5,61.6,43.7,77.4h-30.9c-28.5,0-51.6-23.1-51.6-51.6v-51.6C267.9,574.7,291,551.6,319.5,551.6z M680.5,551.6c28.5,0,51.6,23.1,51.6,51.6v51.6c0,28.5-23.1,51.6-51.6,51.6h-30.8c26.2-15.8,43.7-44.5,43.7-77.4c0-32.8-17.5-61.6-43.7-77.4H680.5z M443.4,706.3c26.2-15.8,43.7-44.5,43.7-77.4c0-32.8-17.5-61.6-43.7-77.4h113.3c-26.2,15.8-43.7,44.5-43.7,77.4c0,32.8,17.5,61.6,43.7,77.4H443.4z"/></g>
</svg>